<?xml version="1.0" encoding="utf-8"?>
<svg xmlns="http://www.w3.org/2000/svg" xmlns:xlink="http://www.w3.org/1999/xlink" style="margin: auto; background: rgb(255, 255, 255); display: block; shape-rendering: auto;" width="214px" height="214px" viewBox="0 0 100 100" preserveAspectRatio="xMidYMid">
<g transform="rotate(0 50 50)">
  <rect x="47.5" y="29.5" rx="2.5" ry="6.5" width="5" height="13" fill="#008ce3">
    <animate attributeName="opacity" values="1;0" keyTimes="0;1" dur="0.7633587786259541s" begin="-0.7156488549618321s" repeatCount="indefinite"></animate>
  </rect>
</g><g transform="rotate(22.5 50 50)">
  <rect x="47.5" y="29.5" rx="2.5" ry="6.5" width="5" height="13" fill="#008ce3">
    <animate attributeName="opacity" values="1;0" keyTimes="0;1" dur="0.7633587786259541s" begin="-0.6679389312977099s" repeatCount="indefinite"></animate>
  </rect>
</g><g transform="rotate(45 50 50)">
  <rect x="47.5" y="29.5" rx="2.5" ry="6.5" width="5" height="13" fill="#008ce3">
    <animate attributeName="opacity" values="1;0" keyTimes="0;1" dur="0.7633587786259541s" begin="-0.6202290076335878s" repeatCount="indefinite"></animate>
  </rect>
</g><g transform="rotate(67.5 50 50)">
  <rect x="47.5" y="29.5" rx="2.5" ry="6.5" width="5" height="13" fill="#008ce3">
    <animate attributeName="opacity" values="1;0" keyTimes="0;1" dur="0.7633587786259541s" begin="-0.5725190839694656s" repeatCount="indefinite"></animate>
  </rect>
</g><g transform="rotate(90 50 50)">
  <rect x="47.5" y="29.5" rx="2.5" ry="6.5" width="5" height="13" fill="#008ce3">
    <animate attributeName="opacity" values="1;0" keyTimes="0;1" dur="0.7633587786259541s" begin="-0.5248091603053435s" repeatCount="indefinite"></animate>
  </rect>
</g><g transform="rotate(112.5 50 50)">
  <rect x="47.5" y="29.5" rx="2.5" ry="6.5" width="5" height="13" fill="#008ce3">
    <animate attributeName="opacity" values="1;0" keyTimes="0;1" dur="0.7633587786259541s" begin="-0.47709923664122134s" repeatCount="indefinite"></animate>
  </rect>
</g><g transform="rotate(135 50 50)">
  <rect x="47.5" y="29.5" rx="2.5" ry="6.5" width="5" height="13" fill="#008ce3">
    <animate attributeName="opacity" values="1;0" keyTimes="0;1" dur="0.7633587786259541s" begin="-0.4293893129770992s" repeatCount="indefinite"></animate>
  </rect>
</g><g transform="rotate(157.5 50 50)">
  <rect x="47.5" y="29.5" rx="2.5" ry="6.5" width="5" height="13" fill="#008ce3">
    <animate attributeName="opacity" values="1;0" keyTimes="0;1" dur="0.7633587786259541s" begin="-0.38167938931297707s" repeatCount="indefinite"></animate>
  </rect>
</g><g transform="rotate(180 50 50)">
  <rect x="47.5" y="29.5" rx="2.5" ry="6.5" width="5" height="13" fill="#008ce3">
    <animate attributeName="opacity" values="1;0" keyTimes="0;1" dur="0.7633587786259541s" begin="-0.33396946564885494s" repeatCount="indefinite"></animate>
  </rect>
</g><g transform="rotate(202.5 50 50)">
  <rect x="47.5" y="29.5" rx="2.5" ry="6.5" width="5" height="13" fill="#008ce3">
    <animate attributeName="opacity" values="1;0" keyTimes="0;1" dur="0.7633587786259541s" begin="-0.2862595419847328s" repeatCount="indefinite"></animate>
  </rect>
</g><g transform="rotate(225 50 50)">
  <rect x="47.5" y="29.5" rx="2.5" ry="6.5" width="5" height="13" fill="#008ce3">
    <animate attributeName="opacity" values="1;0" keyTimes="0;1" dur="0.7633587786259541s" begin="-0.23854961832061067s" repeatCount="indefinite"></animate>
  </rect>
</g><g transform="rotate(247.5 50 50)">
  <rect x="47.5" y="29.5" rx="2.5" ry="6.5" width="5" height="13" fill="#008ce3">
    <animate attributeName="opacity" values="1;0" keyTimes="0;1" dur="0.7633587786259541s" begin="-0.19083969465648853s" repeatCount="indefinite"></animate>
  </rect>
</g><g transform="rotate(270 50 50)">
  <rect x="47.5" y="29.5" rx="2.5" ry="6.5" width="5" height="13" fill="#008ce3">
    <animate attributeName="opacity" values="1;0" keyTimes="0;1" dur="0.7633587786259541s" begin="-0.1431297709923664s" repeatCount="indefinite"></animate>
  </rect>
</g><g transform="rotate(292.5 50 50)">
  <rect x="47.5" y="29.5" rx="2.5" ry="6.5" width="5" height="13" fill="#008ce3">
    <animate attributeName="opacity" values="1;0" keyTimes="0;1" dur="0.7633587786259541s" begin="-0.09541984732824427s" repeatCount="indefinite"></animate>
  </rect>
</g><g transform="rotate(315 50 50)">
  <rect x="47.5" y="29.5" rx="2.5" ry="6.5" width="5" height="13" fill="#008ce3">
    <animate attributeName="opacity" values="1;0" keyTimes="0;1" dur="0.7633587786259541s" begin="-0.047709923664122134s" repeatCount="indefinite"></animate>
  </rect>
</g><g transform="rotate(337.5 50 50)">
  <rect x="47.5" y="29.5" rx="2.5" ry="6.5" width="5" height="13" fill="#008ce3">
    <animate attributeName="opacity" values="1;0" keyTimes="0;1" dur="0.7633587786259541s" begin="0s" repeatCount="indefinite"></animate>
  </rect>
</g>
<!-- [ldio] generated by https://loading.io/ --></svg>