<svg xmlns="http://www.w3.org/2000/svg" width="84" height="22" preserveAspectRatio="xMidYMid"  xmlns:v="https://vecta.io/nano"><path d="M9.095 15.489V3.899h1.42v10.23h5.27v1.36h-6.69m7.51-5.8h0 0q0-1.65.52-2.79h0 0q.52-1.13 1.32-1.83h0 0q.81-.7 1.81-1.01h0 0q.99-.32 1.94-.32h0 0q.96 0 1.95.27h0 0q.99.26 1.8.93h0 0q.81.67 1.33 1.83h0 0q.52 1.15.52 2.94h0 0q0 1.67-.52 2.8h0 0q-.52 1.14-1.33 1.86h0 0q-.81.71-1.8 1.03h0 0q-.99.31-1.95.31h0 0q-.95 0-1.94-.31h0 0q-1-.3-1.81-1h0 0q-.8-.7-1.32-1.85h0 0q-.52-1.16-.52-2.86zm9.57.09h0 0q0-2.3-1.06-3.49h0 0q-1.06-1.19-2.85-1.19h0 0q-.9 0-1.64.28h0 0q-.74.28-1.27.84h0 0q-.54.57-.84 1.41h0 0q-.29.84-.29 1.98h0 0q0 2.29 1.06 3.52h0 0q1.06 1.22 2.85 1.22h0 0q.88 0 1.63-.28h0 0q.74-.28 1.28-.86h0 0q.54-.58.83-1.43h0 0q.3-.85.3-2m2.65 5.71l3.98-11.59h1.77l3.98 11.59h-1.48l-1.02-3.09h-4.71l-1.04 3.09h-1.48zm2.96-4.45h3.81l-1.87-5.78h-.05l-1.89 5.78m10.01-5.84v8.98h2.3 0q.93 0 1.76-.24h0 0q.82-.24 1.44-.77h0 0q.62-.54.98-1.4h0 0q.36-.87.36-2.11h0 0q0-1.16-.32-2h0 0q-.33-.84-.91-1.38h0 0q-.59-.55-1.43-.81h0 0q-.84-.27-1.88-.27h0-2.3zm-1.42 10.29V3.899h3.72 0q1.38 0 2.49.34h0 0q1.11.34 1.91 1.05h0 0q.8.71 1.23 1.8h0 0q.44 1.09.44 2.57h0 0q0 1.5-.48 2.59h0 0q-.47 1.1-1.29 1.82h0 0q-.82.72-1.92 1.07h0 0q-1.11.35-2.38.35h0-3.72m12.15 0V3.899h1.43v11.59h-1.43m4.42 0V3.899h1.36l6.09 9.19h.03 0q-.03-.49-.05-1.05h0 0q-.03-.48-.04-1.1h0 0q-.01-.62-.01-1.26h0v-5.78h1.36v11.59h-1.36l-6.09-9.23h-.03 0q.02.51.05 1.07h0 0q.02.49.03 1.1h0 0q.02.62.02 1.26h0v5.8h-1.36m20.79-11.27l-.24 1.31h0q-.74-.16-1.59-.29h0 0q-.84-.14-1.94-.17h0 0q-1.12.02-1.94.34h0 0q-.82.32-1.33.93h0 0q-.52.6-.78 1.43h0 0q-.25.83-.25 1.84h0 0q0 1.29.33 2.21h0 0q.33.92.92 1.5h0 0q.58.59 1.37.86h0 0q.78.27 1.68.27h0 0q.58 0 1.04-.06h0 0q.47-.07.82-.17h0 0q.35-.09.64-.21h0v-3.11h-2.13v-1.28h3.57v5.09h0q-.59.39-1.64.7h0 0q-1.04.32-2.3.3h0 0q-1.16 0-2.22-.27h0 0q-1.06-.27-1.89-.96h0 0q-.82-.69-1.31-1.88h0 0q-.5-1.19-.5-3.01h0 0q0-1.48.46-2.57h0 0q.46-1.1 1.25-1.82h0 0q.79-.73 1.84-1.09h0 0q1.04-.37 2.22-.37h0 0q.76 0 1.47.08h0 0q.72.08 1.31.17h0 0q.6.09 1.14.23h0"/></svg>